<?xml version="1.0" standalone="no"?>
<!DOCTYPE svg PUBLIC "-//W3C//DTD SVG 20010904//EN"
 "http://www.w3.org/TR/2001/REC-SVG-20010904/DTD/svg10.dtd">
<svg version="1.0" xmlns="http://www.w3.org/2000/svg"
 width="355.000000pt" height="355.000000pt" viewBox="0 0 355.000000 355.000000"
 preserveAspectRatio="xMidYMid meet">
<metadata>
Created by potrace 1.11, written by Peter Selinger 2001-2013
</metadata>
<g transform="translate(0.000000,355.000000) scale(0.100000,-0.100000)"
fill="#000000" stroke="none">
<path d="M2457 2790 c-381 -64 -634 -349 -688 -775 -16 -135 -6 -413 19 -525
45 -191 126 -344 243 -454 142 -134 300 -194 532 -203 207 -9 383 21 497 83
35 19 49 32 46 43 -3 9 -19 75 -37 146 -17 72 -35 133 -39 138 -3 4 -32 -4
-62 -18 -90 -41 -188 -57 -313 -52 -131 5 -195 26 -284 93 -143 107 -211 287
-211 557 0 360 131 574 382 628 82 18 307 6 391 -21 38 -12 71 -20 73 -18 2 2
19 73 39 158 27 118 32 156 23 161 -21 14 -160 48 -233 59 -82 11 -308 11
-378 0z"/>
<path d="M680 1815 l0 -945 600 0 600 0 0 165 0 165 -410 0 -410 0 0 780 0
780 -190 0 -190 0 0 -945z"/>
</g>
</svg>
